{"title":"Daniel Tosh People Pleaser 2016 CC 720p WebRip AAC2 0 x265 RnC","uid":14348224,"size":412408970,"categoryP":"video","categoryS":"hd___movies","magnet":"?xt=urn:btih:f393897fe094186a78de688fb7d3ad140edf8e38&amp;dn=Daniel+Tosh+People+Pleaser+2016+CC+720p+WebRip+AAC2+0+x265+RnC&amp;tr=udp%3A%2F%2Ftracker.leechers-paradise.org%3A6969&amp;tr=udp%3A%2F%2Fzer0day.ch%3A1337&amp;tr=udp%3A%2F%2Fopen.demonii.com%3A1337&amp;tr=udp%3A%2F%2Ftracker.coppersurfer.tk%3A6969&amp;tr=udp%3A%2F%2Fexodus.desync.com%3A6969","seeders":35,"leechers":0,"uploader":"Anon_up","files":1,"time":1461004580,"description":"[center]If you like my encodes/uploads\r\n[color=orange]Donate Bitcoin :[/color] [color=green]1PWLan3jUdKdofaXUuRHMEM6m17E9v2fP6[/color]\r\n\r\n[img]https://i.imgur.com/p94fYT2.png[/img]\r\n\r\nScreenShots\r\n[img]https://i.imgur.com/VPaZEgE.jpg[/img]\r\n\r\nInfo[quote]\r\n\r\nSource : CC SiteRip\r\nCopied Original Audio/Subs\r\n\r\nDaniel Tosh: People Pleaser\r\n\r\n 04/17/2016 \r\n\r\nDaniel Tosh takes on everyone from couples who can't conceive and parents of sick children to hoarders, marathoners, his own detractors and even his fans. (50:11)\r\n\r\n\r\nUse Torrent\r\nand a client that supports HTTPS Seeding\r\nPermanent WebSeed eg: Vuze\r\n\r\n[/quote]\r\n\r\n\r\n\r\n[spoiler=&quot;MediaInfo&quot;]\r\nFor x265 HEVC\r\nInstall Latest K-lite on a dual core+ machine\r\nplay and then rate about quality\r\nif you still cant play,upgrade hardware or get x264\r\n\r\nGeneral\r\nUnique ID : 246475859972602681521922947418175539723 (0xB96D862035B7C2D6945FF2C68ADB8A0B)\r\nComplete name : Daniel.Tosh.People.Pleaser.2016.CC.720p.WebRip.AAC2.0.x265-RnC.mkv\r\nFormat : Matroska\r\nFormat version : Version 4 / Version 2\r\nFile size : 393 MiB\r\nDuration : 50mn 11s\r\nOverall bit rate : 1 096 Kbps\r\nMovie name : RnC | Daniel.Tosh.People.Pleaser.2016\r\nEncoded date : UTC 2016-04-18 15:43:06\r\nWriting application : mkvmerge v9.0.1 ('Obstacles') 32bit\r\nWriting library : libebml v1.3.3 + libmatroska v1.4.4\r\n\r\nVideo\r\nID : 1\r\nFormat : HEVC\r\nFormat/Info : High Efficiency Video Coding\r\nFormat profile :   @Main\r\nCodec ID : V_MPEGH/ISO/HEVC\r\nDuration : 50mn 11s\r\nBit rate : 965 Kbps\r\nWidth : 1 274 pixels\r\nHeight : 720 pixels\r\nDisplay aspect ratio : 16:9\r\nFrame rate mode : Constant\r\nFrame rate : 25.000 fps\r\nColor space : YUV\r\nChroma subsampling : 4:2:0\r\nBit depth : 8 bits\r\nBits/(Pixel*Frame) : 0.042\r\nStream size : 346 MiB (88%)\r\nWriting library : x265 1.9+5-20f14d78dbad:[Linux][GCC 5.2.1][64 bit] 8bit\r\nEncoding settings : wpp / ctu=64 / min-cu-size=8 / max-tu-size=32 / tu-intra-depth=1 / tu-inter-depth=1 / me=1 / subme=2 / merange=57 / no-rect / no-amp / max-merge=2 / temporal-mvp / no-early-skip / rdpenalty=0 / no-tskip / no-tskip-fast / strong-intra-smoothing / no-lossless / no-cu-lossless / no-constrained-intra / no-fast-intra / open-gop / no-temporal-layers / interlace=0 / keyint=250 / min-keyint=25 / scenecut=40 / rc-lookahead=20 / lookahead-slices=4 / bframes=4 / bframe-bias=0 / b-adapt=2 / ref=3 / limit-refs=3 / no-limit-modes / weightp / no-weightb / aq-mode=1 / qg-size=32 / aq-strength=1.00 / cbqpoffs=0 / crqpoffs=0 / rd=3 / psy-rd=2.00 / rdoq-level=0 / psy-rdoq=0.00 / signhide / deblock / sao / no-sao-non-deblock / b-pyramid / cutree / no-intra-refresh / rc=abr / bitrate=965 / qcomp=0.60 / qpmin=0 / qpmax=51 / qpstep=4 / ipratio=1.40 / pbratio=1.30\r\nLanguage : English\r\nDefault : Yes\r\nForced : No\r\n\r\nAudio\r\nID : 2\r\nFormat : AAC\r\nFormat/Info : Advanced Audio Codec\r\nFormat profile : LC\r\nCodec ID : A_AAC\r\nDuration : 50mn 11s\r\nBit rate : 128 Kbps\r\nChannel(s) : 2 channels\r\nChannel positions : Front: L R\r\nSampling rate : 48.0 KHz\r\nFrame rate : 46.875 fps (1024 spf)\r\nCompression mode : Lossy\r\nStream size : 46.0 MiB (12%)\r\nLanguage : English\r\nDefault : Yes\r\nForced : No\r\n\r\nText\r\nID : 3\r\nFormat : UTF-8\r\nCodec ID : S_TEXT/UTF8\r\nCodec ID/Info : UTF-8 Plain Text\r\nDuration : 50mn 9s\r\nBit rate : 151 bps\r\nCount of elements : 1199\r\nStream size : 55.6 KiB (0%)\r\nLanguage : English\r\nDefault : Yes\r\nForced : No\r\n\r\n\r\n[/spoiler]\r\n[/center]","torrent":{"xt":"urn:btih:f393897fe094186a78de688fb7d3ad140edf8e38","amp;dn":"Daniel+Tosh+People+Pleaser+2016+CC+720p+WebRip+AAC2+0+x265+RnC","amp;tr":["udp%3A%2F%2Ftracker.leechers-paradise.org%3A6969","udp%3A%2F%2Fzer0day.ch%3A1337","udp%3A%2F%2Fopen.demonii.com%3A1337","udp%3A%2F%2Ftracker.coppersurfer.tk%3A6969","udp%3A%2F%2Fexodus.desync.com%3A6969"],"infoHash":"f393897fe094186a78de688fb7d3ad140edf8e38","infoHashBuffer":{"type":"Buffer","data":[243,147,137,127,224,148,24,106,120,222,104,143,183,211,173,20,14,223,142,56]},"announce":[],"urlList":[]}}